HIERARCHY
ROOT root
{
	OFFSET	0	260	24
	CHANNELS 6  Xposition Yposition Zposition Xrotation Yrotation Zrotation
	JOINT spine_3
	{
		OFFSET	0	81.6	10.2
		CHANNELS 3  Xrotation Yrotation Zrotation
		JOINT spine_4
		{
			OFFSET	0	110.4	14.6
			CHANNELS 3  Xrotation Yrotation Zrotation
			JOINT neck_1
			{
				OFFSET	0	71.8	-50.3
				CHANNELS 3  Xrotation Yrotation Zrotation
				JOINT neck_2
				{
					OFFSET	0	86.2	-25.8
					CHANNELS 3  Xrotation Yrotation Zrotation
					JOINT head_ee
					{
						OFFSET	0	179.8	-8.7
						CHANNELS 3  Xrotation Yrotation Zrotation
						End Site
						{
							OFFSET	1	0	0
						}
					}
				}
			}
			JOINT left_clavicle
			{
				OFFSET	-43.2	22.4	-70.8
				CHANNELS 3  Xrotation Yrotation Zrotation
				JOINT left_shoulder
				{
					OFFSET	-93.9	-5.79999	48.7
					CHANNELS 3  Xrotation Yrotation Zrotation
					JOINT left_elbow
					{
						OFFSET	-291.4	-30.8	15.2
						CHANNELS 3  Xrotation Yrotation Zrotation
						JOINT left_lowarm_twist
						{
							OFFSET	-110.7	-3.89999	13.6
							CHANNELS 3  Xrotation Yrotation Zrotation
							JOINT left_hand
							{
								OFFSET	-110.7	-3.89999	13.6
								CHANNELS 3  Xrotation Yrotation Zrotation
								JOINT left_ee
								{
									OFFSET	-80.8	-5.10001	12.1
									CHANNELS 3  Xrotation Yrotation Zrotation
									End Site
									{
										OFFSET	1	0	0
									}
								}
							}
						}
					}
				}
			}
			JOINT right_clavicle
			{
				OFFSET	43.2	22.4	-70.8
				CHANNELS 3  Xrotation Yrotation Zrotation
				JOINT right_shoulder
				{
					OFFSET	93.9	-5.79999	48.7
					CHANNELS 3  Xrotation Yrotation Zrotation
					JOINT right_elbow
					{
						OFFSET	291.4	-30.8	15.2
						CHANNELS 3  Xrotation Yrotation Zrotation
						JOINT right_lowarm_twist
						{
							OFFSET	110.7	-3.89999	13.6
							CHANNELS 3  Xrotation Yrotation Zrotation
							JOINT right_hand
							{
								OFFSET	110.7	-3.89999	13.6
								CHANNELS 3  Xrotation Yrotation Zrotation
								JOINT right_ee
								{
									OFFSET	80.8	-5.10001	12.1
									CHANNELS 3  Xrotation Yrotation Zrotation
									End Site
									{
										OFFSET	1	0	0
									}
								}
							}
						}
					}
				}
			}
		}
	}
	JOINT spine_2
	{
		OFFSET	0	-124.9	-9.1
		CHANNELS 3  Xrotation Yrotation Zrotation
		JOINT spine_1
		{
			OFFSET	0	-112	10
			CHANNELS 3  Xrotation Yrotation Zrotation
			JOINT left_hip
			{
				OFFSET	-82.8	-137.5	0.300001
				CHANNELS 3  Xrotation Yrotation Zrotation
				JOINT left_knee
				{
					OFFSET	-28.2	-396.7	2.2
					CHANNELS 3  Xrotation Yrotation Zrotation
					JOINT left_ankle
					{
						OFFSET	-11.7	-411.3	35.4
						CHANNELS 3  Xrotation Yrotation Zrotation
						JOINT left_toes
						{
							OFFSET	0	-60	-88.6
							CHANNELS 3  Xrotation Yrotation Zrotation
							JOINT left_foot_ee
							{
								OFFSET	-22.5	-16.5	-42.2
								CHANNELS 3  Xrotation Yrotation Zrotation
								End Site
								{
									OFFSET	1	0	0
								}
							}
						}
					}
				}
			}
			JOINT right_hip
			{
				OFFSET	82.8	-137.5	0.300001
				CHANNELS 3  Xrotation Yrotation Zrotation
				JOINT right_knee
				{
					OFFSET	28.2	-396.7	2.2
					CHANNELS 3  Xrotation Yrotation Zrotation
					JOINT right_ankle
					{
						OFFSET	11.7	-411.3	35.4
						CHANNELS 3  Xrotation Yrotation Zrotation
						JOINT right_toes
						{
							OFFSET	0	-60	-88.6
							CHANNELS 3  Xrotation Yrotation Zrotation
							JOINT right_foot_ee
							{
								OFFSET	22.5	-16.5	-42.2
								CHANNELS 3  Xrotation Yrotation Zrotation
								End Site
								{
									OFFSET	1	0	0
								}
							}
						}
					}
				}
			}
		}
	}
}
MOTION
Frames: 13
Frame Time: 0.02
658.130661429 722.569 -1143.78745344 -178.010337571 -53.5586923685 179.011194346 3.9779 -0.0796409 -2.00881 3.97249 -0.395833 -1.97105 -18.4914 14.322 8.04494 -19.0063 23.3173 13.2233 -0.0 0.0 -0.0 6.02013 7.89185 11.6721 -12.6747 -26.5159 61.1563 1.00578 -26.4834 0.236681 -8.57672 -0.379932 1.02754 0.972644 2.96081 7.70423 -0.0 0.0 -0.0 9.09291 -15.2342 -16.6326 -53.0221 37.6965 -31.7831 0.517733 14.3848 -0.0653355 -84.6254 8.40507 -5.19363 -6.28115 -27.5008 24.5259 0.0 0.0 0.0 -3.97672 0.225843 1.99766 -3.97887 0.352476 1.97926 10.3353 -3.04251 3.05122 -19.3912 0.302386 2.94619 30.7504 15.0554 -4.01691 -5.29654 0.0 0.0 -0.0 0.0 -0.0 33.3709 22.1753 0.978953 -38.688 0.385416 -5.81374 19.1203 -28.5809 2.81412 -1.55317 0.0 0.0 0.0 0.0 0.0 
656.7342118 722.569 -1137.9480192 -178.067340624 -52.3010994624 178.939757173 3.9779 -0.0796409 -2.00881 3.97249 -0.395833 -1.97105 -18.4914 14.322 8.04494 -19.0063 23.3173 13.2233 -0.0 0.0 -0.0 6.02013 7.89185 11.6721 -12.6747 -26.5159 61.1563 1.00578 -26.4834 0.236681 -8.57672 -0.379932 1.02754 0.972644 2.96081 7.70423 -0.0 0.0 -0.0 9.09291 -15.2342 -16.6326 -53.0221 37.6965 -31.7831 0.517733 14.3848 -0.0653355 -84.6254 8.40507 -5.19363 -6.28115 -27.5008 24.5259 0.0 0.0 0.0 -3.97672 0.225843 1.99766 -3.97887 0.352476 1.97926 10.3353 -3.04251 3.05122 -19.3912 0.302386 2.94619 30.7504 15.0554 -4.01691 -5.29654 0.0 0.0 -0.0 0.0 -0.0 33.3709 22.1753 0.978953 -38.688 0.385416 -5.81374 19.1203 -28.5809 2.81412 -1.55317 0.0 0.0 0.0 0.0 0.0 
655.697755769 722.569 -1133.94374215 -178.104227507 -51.4347239807 178.892863799 3.9779 -0.0796409 -2.00881 3.97249 -0.395833 -1.97105 -18.4914 14.322 8.04494 -19.0063 23.3173 13.2233 -0.0 0.0 -0.0 6.02013 7.89185 11.6721 -12.6747 -26.5159 61.1563 1.00578 -26.4834 0.236681 -8.57672 -0.379932 1.02754 0.972644 2.96081 7.70423 -0.0 0.0 -0.0 9.09291 -15.2342 -16.6326 -53.0221 37.6965 -31.7831 0.517733 14.3848 -0.0653355 -84.6254 8.40507 -5.19363 -6.28115 -27.5008 24.5259 0.0 0.0 0.0 -3.97672 0.225843 1.99766 -3.97887 0.352476 1.97926 10.3353 -3.04251 3.05122 -19.3912 0.302386 2.94619 30.7504 15.0554 -4.01691 -5.29654 0.0 0.0 -0.0 0.0 -0.0 33.3709 22.1753 0.978953 -38.688 0.385416 -5.81374 19.1203 -28.5809 2.81412 -1.55317 0.0 0.0 0.0 0.0 0.0 
665.209102688 724.2 -1128.14630296 -177.614909184 -52.8059798701 179.384504223 3.86667 0.00982503 -2.08688 3.86073 -0.31981 -2.06226 -19.1053 13.6131 6.60184 -19.6927 22.7975 11.7604 -0.0 0.0 -0.0 6.19342 6.59624 12.0046 -11.921 -25.9753 60.4616 1.2167 -31.0769 0.338312 -7.14331 -0.305769 0.859884 1.01243 1.11903 7.23139 -0.0 0.0 -0.0 8.67316 -14.9664 -15.9446 -53.3644 37.5806 -33.596 0.518228 14.398 -0.0654585 -84.8895 8.43811 -5.18728 -5.92586 -26.4384 23.2312 0.0 0.0 0.0 -3.86539 0.150401 2.08148 -3.86775 0.282517 2.0677 7.81927 -2.17513 2.57714 -15.646 0.322077 2.372 30.5364 14.0144 -3.98305 -5.45156 0.0 0.0 -0.0 0.0 -0.0 35.4252 25.8232 -0.438652 -37.8732 0.337037 -5.69824 16.1917 -28.1365 2.40254 -1.49449 0.0 0.0 0.0 0.0 0.0 
762.076278559 694.351 -1097.65609289 -168.626059313 -59.3910244765 -169.455424892 3.75493 0.117568 -2.01301 3.74933 -0.20176 -2.00633 -13.9393 11.3815 5.2176 -14.123 18.5424 8.55828 -0.0 0.0 -0.0 8.43574 -3.13088 16.5126 -11.8797 -21.3832 50.226 1.87286 -42.8496 0.734958 0.278367 0.00972497 -0.0342211 0.943962 -11.7463 1.37168 -0.0 0.0 -0.0 9.20398 -6.17581 -17.6914 -58.6041 36.6838 -46.2744 0.460588 12.8529 -0.0518788 -84.2068 8.35263 -5.20338 -4.64849 -20.8437 19.4489 0.0 0.0 0.0 -3.75374 0.0451645 2.01593 -3.75598 0.173326 2.00898 3.02634 -5.79017 -3.39034 -11.221 0.296956 1.69369 40.3858 14.5563 -4.9605 -9.77518 0.0 0.0 -0.0 0.0 -0.0 37.5389 33.8288 -0.386377 8.04233 0.41365 1.1632 -4.85417 -29.3729 -0.767747 -9.6623 0.0 0.0 0.0 0.0 0.0 
785.683063196 690.065 -1091.1511872 -167.421553399 -60.3046669332 -167.798867303 3.36218 -0.0021765 -1.84699 3.35754 -0.293798 -1.82349 -11.7354 11.4243 5.24105 -11.8326 18.2751 8.22764 -0.0 0.0 -0.0 8.58599 -2.92184 16.821 -12.7664 -20.051 48.7057 2.04255 -45.3313 0.853055 -0.380751 -0.0135712 0.0467314 1.29244 -14.4695 2.53124 -0.0 0.0 -0.0 9.5653 -6.33484 -18.3772 -61.1567 37.1092 -45.5704 0.4989 13.8821 -0.0607366 -84.6396 8.40685 -5.19329 -4.37771 -18.2245 19.4663 0.0 0.0 0.0 -3.36118 0.176343 1.83856 -3.36301 0.292958 1.82362 2.1665 -6.44595 -4.03994 -14.7748 0.321274 2.23834 41.2099 15.1652 -5.0423 -9.56983 0.0 0.0 -0.0 0.0 -0.0 37.3122 34.3795 -1.26058 8.75417 0.458075 1.2632 -4.59948 -26.5666 -0.71471 -9.9811 0.0 0.0 0.0 0.0 0.0 
786.948184794 690.065 -1095.64843476 -167.166522839 -60.9414106556 -167.506208098 3.36218 -0.0021765 -1.84699 3.35754 -0.293798 -1.82349 -11.7354 11.4243 5.24105 -11.8326 18.2751 8.22764 -0.0 0.0 -0.0 8.58599 -2.92184 16.821 -12.7664 -20.051 48.7057 2.04255 -45.3313 0.853055 -0.380751 -0.0135712 0.0467314 1.29244 -14.4695 2.53124 -0.0 0.0 -0.0 9.5653 -6.33484 -18.3772 -61.1567 37.1092 -45.5704 0.4989 13.8821 -0.0607366 -84.6396 8.40685 -5.19329 -4.37771 -18.2245 19.4663 0.0 0.0 0.0 -3.36118 0.176343 1.83856 -3.36301 0.292958 1.82362 2.1665 -6.44595 -4.03994 -14.7748 0.321274 2.23834 41.2099 15.1652 -5.0423 -9.56983 0.0 0.0 -0.0 0.0 -0.0 37.3122 34.3795 -1.26058 8.75417 0.458075 1.2632 -4.59948 -26.5666 -0.71471 -9.9811 0.0 0.0 0.0 0.0 0.0 
788.655332261 690.065 -1102.05431015 -166.783753912 -61.8438317207 -167.070227532 3.36218 -0.0021765 -1.84699 3.35754 -0.293798 -1.82349 -11.7354 11.4243 5.24105 -11.8326 18.2751 8.22764 -0.0 0.0 -0.0 8.58599 -2.92184 16.821 -12.7664 -20.051 48.7057 2.04255 -45.3313 0.853055 -0.380751 -0.0135712 0.0467314 1.29244 -14.4695 2.53124 -0.0 0.0 -0.0 9.5653 -6.33484 -18.3772 -61.1567 37.1092 -45.5704 0.4989 13.8821 -0.0607366 -84.6396 8.40685 -5.19329 -4.37771 -18.2245 19.4663 0.0 0.0 0.0 -3.36118 0.176343 1.83856 -3.36301 0.292958 1.82362 2.1665 -6.44595 -4.03994 -14.7748 0.321274 2.23834 41.2099 15.1652 -5.0423 -9.56983 0.0 0.0 -0.0 0.0 -0.0 37.3122 34.3795 -1.26058 8.75417 0.458075 1.2632 -4.59948 -26.5666 -0.71471 -9.9811 0.0 0.0 0.0 0.0 0.0 
855.954612627 680.47 -1084.56523318 -161.383970584 -67.6130284555 -161.871290329 2.90327 -0.337484 -1.40796 2.90094 -0.55559 -1.33701 -9.80542 10.3911 4.44685 -9.83845 16.5474 6.90228 -0.0 0.0 -0.0 8.9621 -5.80787 17.6241 -16.3796 -18.7157 46.7573 2.24199 -47.9936 0.998152 -1.13245 -0.0412755 0.138726 1.9166 -17.6258 5.3005 -0.0 0.0 -0.0 10.3668 -7.75756 -19.7967 -63.7432 39.3466 -44.1929 0.547213 15.167 -0.0728542 -85.2408 8.48202 -5.1786 -3.91326 -13.7297 19.2362 0.0 0.0 0.0 -2.9027 0.490608 1.36219 -2.90355 0.576286 1.32822 0.231163 -5.29459 -4.46791 -18.8844 0.307245 2.86859 39.8459 17.4792 -4.96098 -10.812 0.0 0.0 -0.0 0.0 -0.0 37.789 35.6845 -2.79033 5.97327 0.291645 0.869548 -7.43573 -21.447 -1.13254 -11.8438 0.0 0.0 0.0 0.0 0.0 
856.683176346 680.47 -1087.42377605 -161.106609684 -67.9467166326 -161.571681051 2.90327 -0.337484 -1.40796 2.90094 -0.55559 -1.33701 -9.80542 10.3911 4.44685 -9.83845 16.5474 6.90228 -0.0 0.0 -0.0 8.9621 -5.80787 17.6241 -16.3796 -18.7157 46.7573 2.24199 -47.9936 0.998152 -1.13245 -0.0412755 0.138726 1.9166 -17.6258 5.3005 -0.0 0.0 -0.0 10.3668 -7.75756 -19.7967 -63.7432 39.3466 -44.1929 0.547213 15.167 -0.0728542 -85.2408 8.48202 -5.1786 -3.91326 -13.7297 19.2362 0.0 0.0 0.0 -2.9027 0.490608 1.36219 -2.90355 0.576286 1.32822 0.231163 -5.29459 -4.46791 -18.8844 0.307245 2.86859 39.8459 17.4792 -4.96098 -10.812 0.0 0.0 -0.0 0.0 -0.0 37.789 35.6845 -2.79033 5.97327 0.291645 0.869548 -7.43573 -21.447 -1.13254 -11.8438 0.0 0.0 0.0 0.0 0.0 
857.419211502 680.47 -1090.38907783 -160.810105145 -68.2917306902 -161.252160103 2.90327 -0.337484 -1.40796 2.90094 -0.55559 -1.33701 -9.80542 10.3911 4.44685 -9.83845 16.5474 6.90228 -0.0 0.0 -0.0 8.9621 -5.80787 17.6241 -16.3796 -18.7157 46.7573 2.24199 -47.9936 0.998152 -1.13245 -0.0412755 0.138726 1.9166 -17.6258 5.3005 -0.0 0.0 -0.0 10.3668 -7.75756 -19.7967 -63.7432 39.3466 -44.1929 0.547213 15.167 -0.0728542 -85.2408 8.48202 -5.1786 -3.91326 -13.7297 19.2362 0.0 0.0 0.0 -2.9027 0.490608 1.36219 -2.90355 0.576286 1.32822 0.231163 -5.29459 -4.46791 -18.8844 0.307245 2.86859 39.8459 17.4792 -4.96098 -10.812 0.0 0.0 -0.0 0.0 -0.0 37.789 35.6845 -2.79033 5.97327 0.291645 0.869548 -7.43573 -21.447 -1.13254 -11.8438 0.0 0.0 0.0 0.0 0.0 
857.871994329 680.47 -1092.25455302 -160.618810821 -68.5081822016 -161.046418169 2.90327 -0.337484 -1.40796 2.90094 -0.55559 -1.33701 -9.80542 10.3911 4.44685 -9.83845 16.5474 6.90228 -0.0 0.0 -0.0 8.9621 -5.80787 17.6241 -16.3796 -18.7157 46.7573 2.24199 -47.9936 0.998152 -1.13245 -0.0412755 0.138726 1.9166 -17.6258 5.3005 -0.0 0.0 -0.0 10.3668 -7.75756 -19.7967 -63.7432 39.3466 -44.1929 0.547213 15.167 -0.0728542 -85.2408 8.48202 -5.1786 -3.91326 -13.7297 19.2362 0.0 0.0 0.0 -2.9027 0.490608 1.36219 -2.90355 0.576286 1.32822 0.231163 -5.29459 -4.46791 -18.8844 0.307245 2.86859 39.8459 17.4792 -4.96098 -10.812 0.0 0.0 -0.0 0.0 -0.0 37.789 35.6845 -2.79033 5.97327 0.291645 0.869548 -7.43573 -21.447 -1.13254 -11.8438 0.0 0.0 0.0 0.0 0.0 
857.835641083 680.47 -1092.10356581 -160.634433793 -68.4906803621 -161.06320959 2.90327 -0.337484 -1.40796 2.90094 -0.55559 -1.33701 -9.80542 10.3911 4.44685 -9.83845 16.5474 6.90228 -0.0 0.0 -0.0 8.9621 -5.80787 17.6241 -16.3796 -18.7157 46.7573 2.24199 -47.9936 0.998152 -1.13245 -0.0412755 0.138726 1.9166 -17.6258 5.3005 -0.0 0.0 -0.0 10.3668 -7.75756 -19.7967 -63.7432 39.3466 -44.1929 0.547213 15.167 -0.0728542 -85.2408 8.48202 -5.1786 -3.91326 -13.7297 19.2362 0.0 0.0 0.0 -2.9027 0.490608 1.36219 -2.90355 0.576286 1.32822 0.231163 -5.29459 -4.46791 -18.8844 0.307245 2.86859 39.8459 17.4792 -4.96098 -10.812 0.0 0.0 -0.0 0.0 -0.0 37.789 35.6845 -2.79033 5.97327 0.291645 0.869548 -7.43573 -21.447 -1.13254 -11.8438 0.0 0.0 0.0 0.0 0.0 
